<?xml version="1.0" standalone="no"?>
<!DOCTYPE svg PUBLIC "-//W3C//DTD SVG 20010904//EN" "http://www.w3.org/TR/2001/REC-SVG-20010904/DTD/svg10.dtd">
<!-- Created using Krita: https://krita.org -->
<svg xmlns="http://www.w3.org/2000/svg" 
    xmlns:xlink="http://www.w3.org/1999/xlink"
    xmlns:krita="http://krita.org/namespaces/svg/krita"
    xmlns:sodipodi="http://sodipodi.sourceforge.net/DTD/sodipodi-0.dtd"
    width="600pt"
    height="600pt"
    viewBox="0 0 600 600">
<defs/>
<path id="shape0" transform="matrix(-1.09822746828326 0 0 1.13737599049736 80.7891773266433 499.091188661297)" fill="none" stroke="#191919" stroke-width="11.38" stroke-linecap="round" stroke-linejoin="miter" stroke-miterlimit="2" d="M0 0C24.42 0.29 34.36 15.069 37.07 37.069" sodipodi:nodetypes="cc"/><path id="shape1" transform="matrix(-1.09568525551896 -0.84574334978981 -0.81663475289586 1.13474186176078 344.891007640334 122.700838514453)" fill="none" stroke="#191919" stroke-width="9.3" stroke-linecap="round" stroke-linejoin="miter" stroke-miterlimit="2" d="M0 124.714C0 124.714 36.903 -49.1917 143 13.7143C249.097 76.6203 12.912 143.925 10 142.714" sodipodi:nodetypes="ccc"/><path id="shape2" transform="matrix(689.736106509928 -213.478839314352 206.131225735925 714.321611723756 -19.8503942990163 251.804994274576)" fill="#a6a6a6" stroke="none" stroke-width="1" stroke-linecap="square" stroke-linejoin="bevel" d="M0.387 0.523C0.315 0.523 0.25 0.513 0.191 0.494C0.133 0.474 0.086 0.445 0.052 0.406C0.017 0.368 0 0.319 0 0.261C0 0.202 0.017 0.154 0.052 0.115C0.086 0.077 0.133 0.048 0.191 0.029C0.25 0.01 0.315 0 0.387 0C0.459 0 0.524 0.01 0.582 0.029C0.64 0.048 0.687 0.077 0.722 0.116C0.756 0.154 0.774 0.203 0.774 0.261C0.774 0.319 0.756 0.368 0.722 0.406C0.687 0.445 0.64 0.474 0.582 0.494C0.524 0.513 0.459 0.523 0.387 0.523Z" sodipodi:nodetypes="ccccccccccccc"/><circle id="shape3" transform="matrix(1.09822746828326 0 0 1.13737599049736 75.737775226331 368.098344374339)" r="17.5" cx="17.5" cy="17.5" fill="#191919" fill-rule="evenodd" stroke="#191919" stroke-width="11.38" stroke-linecap="square" stroke-linejoin="round"/><circle id="shape4" transform="matrix(1.09822746828326 0 0 1.13737599049736 186.658487700363 387.252424282339)" r="17.5" cx="17.5" cy="17.5" fill="#191919" fill-rule="evenodd" stroke="#191919" stroke-width="11.38" stroke-linecap="square" stroke-linejoin="round"/><path id="shape5" transform="matrix(1.36653648853553 0 0 1.41524553028434 320.737288872281 78.8775291418847)" fill="none" stroke="#191919" stroke-width="9.15" stroke-linecap="round" stroke-linejoin="miter" stroke-miterlimit="2" d="M0 124.714C0 124.714 36.903 -49.1917 143 13.7143C249.097 76.6203 12.912 143.925 10 142.714" sodipodi:nodetypes="ccc"/><path id="shape6" transform="matrix(1.09822746828326 0 0 1.13737599049736 300.379890943463 542.777371190877)" fill="none" stroke="#191919" stroke-width="11.38" stroke-linecap="round" stroke-linejoin="miter" stroke-miterlimit="2" d="M0 0C24.42 0.29 34.36 15.069 37.07 37.069" sodipodi:nodetypes="cc"/><path id="shape7" transform="matrix(1.09822746828326 0 0 1.13737599049736 396.444283642131 500.614992224361)" fill="none" stroke="#191919" stroke-width="11.38" stroke-linecap="round" stroke-linejoin="miter" stroke-miterlimit="2" d="M0 0C24.42 0.29 34.36 15.069 37.07 37.069" sodipodi:nodetypes="cc"/><path id="shape8" transform="matrix(1.06223953277284 -0.288777670874883 0.278838510794589 1.10009907777076 468.27769620741 469.017080239039)" fill="none" stroke="#191919" stroke-width="11.48" stroke-linecap="round" stroke-linejoin="miter" stroke-miterlimit="2" d="M0 0C24.42 0.29 34.36 15.069 37.07 37.069" sodipodi:nodetypes="cc"/><path id="shape9" transform="matrix(0.715538299184024 0.053904562129796 -0.0520492303524942 0.741044271263436 115.860446841323 438.211023845641)" fill="none" stroke="#191919" stroke-width="17.38" stroke-linecap="round" stroke-linejoin="round" d="M0 0.00099337C0.08 1.11399 14.01 14.478 31 0.00099337C31.53 -0.135007 45.47 13.76 61.86 0.860993" sodipodi:nodetypes="ccc"/>
</svg>
