<?xml version="1.0" standalone="no"?>
<!DOCTYPE svg PUBLIC "-//W3C//DTD SVG 20010904//EN" "http://www.w3.org/TR/2001/REC-SVG-20010904/DTD/svg10.dtd">
<!-- Created using Krita: https://krita.org -->
<svg xmlns="http://www.w3.org/2000/svg" 
    xmlns:xlink="http://www.w3.org/1999/xlink"
    xmlns:krita="http://krita.org/namespaces/svg/krita"
    xmlns:sodipodi="http://sodipodi.sourceforge.net/DTD/sodipodi-0.dtd"
    width="178.56pt"
    height="146.88pt"
    viewBox="0 0 178.56 146.88">
<defs/>
<path id="shape0" transform="matrix(0.72 0 0 0.72 0.72 1.07811043987871)" fill="#000000" stroke-opacity="0" stroke="#000000" stroke-width="0" stroke-linecap="square" stroke-linejoin="bevel" d="M220.95 49.7926C221.1 51.9626 221.1 54.1326 221.1 56.3226C221.1 123.053 170.3 200.013 77.41 200.013L77.41 199.973C49.97 200.013 23.1 192.153 0 177.333C3.99 177.813 8 178.053 12.02 178.063C34.76 178.083 56.85 170.453 74.74 156.403C53.13 155.993 34.18 141.903 27.56 121.333C35.13 122.793 42.93 122.493 50.36 120.463C26.8 115.703 9.85 95.0026 9.85 70.9626L9.85 70.3226C16.87 74.2326 24.73 76.4026 32.77 76.6426C10.58 61.8126 3.74 32.2926 17.14 9.21262C42.78 40.7626 80.61 59.9426 121.22 61.9726C117.15 44.4326 122.71 26.0526 135.83 13.7226C156.17 -5.39738 188.16 -4.41738 207.28 15.9126C218.59 13.6826 229.43 9.53262 239.35 3.65262C235.58 15.3426 227.69 25.2726 217.15 31.5826C227.16 30.4026 236.94 27.7226 246.15 23.6326C239.37 33.7926 230.83 42.6426 220.95 49.7926Z" sodipodi:nodetypes="cccccccccccccccccccc"/>
</svg>
