<?xml version="1.0" standalone="no"?>
<!DOCTYPE svg PUBLIC "-//W3C//DTD SVG 20010904//EN" "http://www.w3.org/TR/2001/REC-SVG-20010904/DTD/svg10.dtd">
<!-- Created using Krita: https://krita.org -->
<svg xmlns="http://www.w3.org/2000/svg" 
    xmlns:xlink="http://www.w3.org/1999/xlink"
    xmlns:krita="http://krita.org/namespaces/svg/krita"
    xmlns:sodipodi="http://sodipodi.sourceforge.net/DTD/sodipodi-0.dtd"
    width="1800pt"
    height="1800pt"
    viewBox="0 0 1800 1800">
<defs/>
<path id="shape0" transform="matrix(35.1562494761311 0 0 35.1562494761311 -0.0129837372775796 1.34110448470892e-05)" fill="#000000" stroke-opacity="0" stroke="#000000" stroke-width="0" stroke-linecap="square" stroke-linejoin="bevel" d="M25.6007 51.2C11.4137 51.2 -0.106261 39.893 0.000739393 25.6C0.107739 11.307 10.8807 0 25.6007 0C40.3217 0 51.2007 11.52 51.2007 25.6C51.2007 39.68 39.7877 51.2 25.6007 51.2ZM33.1737 47.253L25.9207 27.733L19.0937 47.68C24.1077 48.854 27.5207 49.173 33.1737 47.253ZM15.4677 46.187L4.58774 16.427C3.09374 19.627 2.77474 22.294 2.56074 25.6C2.66774 34.346 7.57374 42.346 15.4677 46.187ZM48.5347 25.6C48.6407 19.947 46.0817 15.467 45.8677 14.827C46.0817 19.201 45.4407 21.44 44.6947 23.894L37.2277 45.334C46.6147 39.68 48.4267 31.253 48.6407 25.6ZM24.8547 24.64L21.2277 14.72L18.5607 14.507C17.4947 13.76 18.1337 12.587 18.8807 12.587C23.6807 12.907 26.3467 12.907 31.1477 12.587C32.3217 12.587 32.6407 14.294 31.2537 14.507L28.6937 14.72L37.0127 39.253L40.9587 25.813C41.1727 19.947 39.5717 19.307 37.4387 15.04C35.7317 11.733 37.5457 8.533 40.8527 8.427C38.1847 5.867 32.7457 2.667 25.5987 2.56C18.4517 2.453 10.8787 6.08 6.39874 12.907L14.2927 12.694C15.2527 13.121 14.8257 14.507 14.2927 14.614L11.5197 14.827L19.8397 39.787Z" sodipodi:nodetypes="ccccccccccccccccccccccccccccccccccccc"/>
</svg>
